<?xml version="1.0" encoding="UTF-8" standalone="no"?>
<!-- Created with Inkscape (http://www.inkscape.org/) -->

<svg
   xmlns:dc="http://purl.org/dc/elements/1.1/"
   xmlns:cc="http://creativecommons.org/ns#"
   xmlns:rdf="http://www.w3.org/1999/02/22-rdf-syntax-ns#"
   xmlns:svg="http://www.w3.org/2000/svg"
   xmlns="http://www.w3.org/2000/svg"
   xmlns:sodipodi="http://sodipodi.sourceforge.net/DTD/sodipodi-0.dtd"
   xmlns:inkscape="http://www.inkscape.org/namespaces/inkscape"
   version="1.1"
   id="svg2"
   xml:space="preserve"
   width="612"
   height="612"
   viewBox="0 0 612 612"
   sodipodi:docname="check-icon.svg"
   inkscape:version="0.92.4 (5da689c313, 2019-01-14)"><metadata
     id="metadata8"><rdf:RDF><cc:Work
         rdf:about=""><dc:format>image/svg+xml</dc:format><dc:type
           rdf:resource="http://purl.org/dc/dcmitype/StillImage" /><dc:title></dc:title></cc:Work></rdf:RDF></metadata><defs
     id="defs6"><clipPath
       clipPathUnits="userSpaceOnUse"
       id="clipPath18"><path
         d="M 0,459 H 459 V 0 H 0 Z"
         id="path16"
         inkscape:connector-curvature="0" /></clipPath></defs><sodipodi:namedview
     pagecolor="#ffffff"
     bordercolor="#666666"
     borderopacity="1"
     objecttolerance="10"
     gridtolerance="10"
     guidetolerance="10"
     inkscape:pageopacity="0"
     inkscape:pageshadow="2"
     inkscape:window-width="1920"
     inkscape:window-height="1027"
     id="namedview4"
     showgrid="false"
     inkscape:zoom="0.38562092"
     inkscape:cx="-115.39831"
     inkscape:cy="202.27119"
     inkscape:window-x="-8"
     inkscape:window-y="-8"
     inkscape:window-maximized="1"
     inkscape:current-layer="g12" /><g
     id="g10"
     inkscape:groupmode="layer"
     inkscape:label="Vector Smart Object"
     transform="matrix(1.3333333,0,0,-1.3333333,0,612)"><g
       id="g12"><g
         id="g14"
         clip-path="url(#clipPath18)"
         style="fill:#dddddd;fill-opacity:0"><g
           id="g20"
           transform="translate(401.0645,321.7358)"
           style="fill:#dddddd;fill-opacity:0"><path
             d="m 0,0 -212.8,-212.8 c -2.692,-2.693 -6.228,-4.038 -9.764,-4.038 -3.537,0 -7.073,1.345 -9.765,4.038 L -343.128,-102 c -2.609,2.608 -4.045,6.076 -4.045,9.764 0,3.689 1.436,7.156 4.045,9.764 l 19,19 c 2.607,2.608 6.075,4.045 9.763,4.045 3.689,0 7.157,-1.437 9.764,-4.045 l 79.984,-79.984 c 1.132,-1.13 2.973,-1.13 4.105,0 L -38.528,38.528 c 5.382,5.384 14.143,5.384 19.528,0.001 L 0,19.528 C 5.384,14.145 5.384,5.384 0,0 m 6.936,137.264 h -357 c -28.05,0 -51,-22.95 -51,-51 v -357 c 0,-28.05 22.95,-51 51,-51 h 357 c 28.049,0 51,22.95 51,51 v 357 c 0,28.05 -22.951,51 -51,51"
             style="fill:#dddddd;fill-opacity:0;fill-rule:nonzero;stroke:none"
             id="path22"
             inkscape:connector-curvature="0" /></g></g><path
         style="fill:#bbbbbb;fill-opacity:0;stroke-width:2.59322023"
         d="M 41.491525,604.84743 C 26.654444,597.90771 13.998828,585.89371 7.2515714,572.34339 2.8635923,563.5311 2.5932203,548.0835 2.5932203,306.19011 V 49.392059 L 9.2178662,36.519119 C 16.674017,22.030406 32.952082,8.2776799 47.391766,4.2674226 c 13.326004,-3.70096134 503.890474,-3.70096134 517.216454,0 14.4397,4.0102573 30.71776,17.7629834 38.17392,32.2516964 l 6.62464,12.87294 V 306.19011 c 0,241.89339 -0.27037,257.34099 -4.65836,266.15328 -6.74725,13.55032 -19.40286,25.56432 -34.23995,32.50404 l -12.9661,6.06461 H 306 54.457627 Z M 247.13302,469.80896 c 3.85141,-2.04219 71.47651,-68.29114 150.278,-147.2199 C 563.9463,155.7848 552.01871,172.77365 522.981,143.73594 494.10038,114.85531 508.42193,105.27514 362.48506,251.09716 L 237.31989,376.1638 179.46869,318.5209 c -41.88544,-41.73464 -59.50135,-57.64293 -63.8304,-57.64293 -3.90449,0 -12.63191,6.45076 -25.151964,18.59079 -15.615579,15.14158 -19.172767,20.0645 -19.172767,26.53383 0,6.96098 9.864789,17.80783 79.788201,87.73124 44.9447,44.94468 81.80586,79.7882 84.40844,79.7882 2.54113,0 7.7714,-1.67089 11.62282,-3.71307 z"
         id="path4537"
         inkscape:connector-curvature="0"
         transform="matrix(0.75000002,0,0,-0.75000002,0,459.00001)" /><path
         style="fill:#bbbbbb;fill-opacity:0;stroke-width:2.59322023"
         d="M 41.491525,604.84743 C 26.654444,597.90771 13.998828,585.89371 7.2515714,572.34339 2.8635923,563.5311 2.5932203,548.0835 2.5932203,306.19011 V 49.392059 L 9.2178662,36.519119 C 16.674017,22.030406 32.952082,8.2776799 47.391766,4.2674226 c 13.326004,-3.70096134 503.890474,-3.70096134 517.216454,0 14.4397,4.0102573 30.71776,17.7629834 38.17392,32.2516964 l 6.62464,12.87294 V 306.19011 c 0,241.89339 -0.27037,257.34099 -4.65836,266.15328 -6.74725,13.55032 -19.40286,25.56432 -34.23995,32.50404 l -12.9661,6.06461 H 306 54.457627 Z M 247.13302,469.80896 c 3.85141,-2.04219 71.47651,-68.29114 150.278,-147.2199 C 563.9463,155.7848 552.01871,172.77365 522.981,143.73594 494.10038,114.85531 508.42193,105.27514 362.48506,251.09716 L 237.31989,376.1638 179.46869,318.5209 c -41.88544,-41.73464 -59.50135,-57.64293 -63.8304,-57.64293 -3.90449,0 -12.63191,6.45076 -25.151964,18.59079 -15.615579,15.14158 -19.172767,20.0645 -19.172767,26.53383 0,6.96098 9.864789,17.80783 79.788201,87.73124 44.9447,44.94468 81.80586,79.7882 84.40844,79.7882 2.54113,0 7.7714,-1.67089 11.62282,-3.71307 z"
         id="path4539"
         inkscape:connector-curvature="0"
         transform="matrix(0.75000002,0,0,-0.75000002,0,459.00001)" /><path
         style="fill:#bbbbbb;fill-opacity:0;stroke-width:2.59322023"
         d="M 41.491525,604.84743 C 26.654444,597.90771 13.998828,585.89371 7.2515714,572.34339 2.8635923,563.5311 2.5932203,548.0835 2.5932203,306.19011 V 49.392059 L 9.2178662,36.519119 C 16.674017,22.030406 32.952082,8.2776799 47.391766,4.2674226 c 13.326004,-3.70096134 503.890474,-3.70096134 517.216454,0 14.4397,4.0102573 30.71776,17.7629834 38.17392,32.2516964 l 6.62464,12.87294 V 306.19011 c 0,241.89339 -0.27037,257.34099 -4.65836,266.15328 -6.74725,13.55032 -19.40286,25.56432 -34.23995,32.50404 l -12.9661,6.06461 H 306 54.457627 Z M 247.13302,469.80896 c 3.85141,-2.04219 71.47651,-68.29114 150.278,-147.2199 C 563.9463,155.7848 552.01871,172.77365 522.981,143.73594 494.10038,114.85531 508.42193,105.27514 362.48506,251.09716 L 237.31989,376.1638 179.46869,318.5209 c -41.88544,-41.73464 -59.50135,-57.64293 -63.8304,-57.64293 -3.90449,0 -12.63191,6.45076 -25.151964,18.59079 -15.615579,15.14158 -19.172767,20.0645 -19.172767,26.53383 0,6.96098 9.864789,17.80783 79.788201,87.73124 44.9447,44.94468 81.80586,79.7882 84.40844,79.7882 2.54113,0 7.7714,-1.67089 11.62282,-3.71307 z"
         id="path4541"
         inkscape:connector-curvature="0"
         transform="matrix(0.75000002,0,0,-0.75000002,0,459.00001)" /><path
         style="fill:#bbbbbb;fill-opacity:0;stroke-width:2.59322023"
         d="M 41.491525,604.84743 C 26.654444,597.90771 13.998828,585.89371 7.2515714,572.34339 2.8635923,563.5311 2.5932203,548.0835 2.5932203,306.19011 V 49.392059 L 9.2178662,36.519119 C 16.674017,22.030406 32.952082,8.2776799 47.391766,4.2674226 c 13.326004,-3.70096134 503.890474,-3.70096134 517.216454,0 14.4397,4.0102573 30.71776,17.7629834 38.17392,32.2516964 l 6.62464,12.87294 V 306.19011 c 0,241.89339 -0.27037,257.34099 -4.65836,266.15328 -6.74725,13.55032 -19.40286,25.56432 -34.23995,32.50404 l -12.9661,6.06461 H 306 54.457627 Z M 247.13302,469.80896 c 3.85141,-2.04219 71.47651,-68.29114 150.278,-147.2199 C 563.9463,155.7848 552.01871,172.77365 522.981,143.73594 494.10038,114.85531 508.42193,105.27514 362.48506,251.09716 L 237.31989,376.1638 179.46869,318.5209 c -41.88544,-41.73464 -59.50135,-57.64293 -63.8304,-57.64293 -3.90449,0 -12.63191,6.45076 -25.151964,18.59079 -15.615579,15.14158 -19.172767,20.0645 -19.172767,26.53383 0,6.96098 9.864789,17.80783 79.788201,87.73124 44.9447,44.94468 81.80586,79.7882 84.40844,79.7882 2.54113,0 7.7714,-1.67089 11.62282,-3.71307 z"
         id="path4543"
         inkscape:connector-curvature="0"
         transform="matrix(0.75000002,0,0,-0.75000002,0,459.00001)" /></g><path
       style="fill:#000000;stroke-width:2.59322023"
       d="m 152.29574,391.09059 c -43.82707,-43.91101 -79.685571,-81.31134 -79.685571,-83.11182 0,-12.15175 31.368381,-44.50758 43.149271,-44.50758 5.86103,0 17.61221,10.41991 64.99246,57.62958 l 57.83782,57.62957 125.15181,-125.0533 C 474.54306,142.96271 489.80684,128.62373 496.86019,128.62373 c 6.45522,0 11.24589,3.39647 25.24826,17.9004 11.27859,11.6826 17.28138,20.00586 17.28138,23.96181 0,9.13538 -291.74587,300.44287 -300.895,300.44287 -5.08934,0 -23.93683,-17.45667 -86.19909,-79.83822 z"
       id="path24"
       inkscape:connector-curvature="0"
       transform="matrix(0.75000002,0,0,-0.75000002,0,459.00001)" /></g></svg>