<?xml version="1.0" encoding="UTF-8" standalone="no"?>
<!-- Created with Inkscape (http://www.inkscape.org/) -->

<svg
   xmlns:dc="http://purl.org/dc/elements/1.1/"
   xmlns:cc="http://creativecommons.org/ns#"
   xmlns:rdf="http://www.w3.org/1999/02/22-rdf-syntax-ns#"
   xmlns:svg="http://www.w3.org/2000/svg"
   xmlns="http://www.w3.org/2000/svg"
   xmlns:sodipodi="http://sodipodi.sourceforge.net/DTD/sodipodi-0.dtd"
   xmlns:inkscape="http://www.inkscape.org/namespaces/inkscape"
   version="1.1"
   id="svg2"
   xml:space="preserve"
   width="501.06668"
   height="652.53333"
   viewBox="0 0 501.06668 652.53333"
   sodipodi:docname="data-protection-icon.svg"
   inkscape:version="0.92.4 (5da689c313, 2019-01-14)"><metadata
     id="metadata8"><rdf:RDF><cc:Work
         rdf:about=""><dc:format>image/svg+xml</dc:format><dc:type
           rdf:resource="http://purl.org/dc/dcmitype/StillImage" /><dc:title></dc:title></cc:Work></rdf:RDF></metadata><defs
     id="defs6"><clipPath
       clipPathUnits="userSpaceOnUse"
       id="clipPath18"><path
         d="M 0,489.4 H 375.8 V 0 H 0 Z"
         id="path16"
         inkscape:connector-curvature="0" /></clipPath></defs><sodipodi:namedview
     pagecolor="#ffffff"
     bordercolor="#666666"
     borderopacity="1"
     objecttolerance="10"
     gridtolerance="10"
     guidetolerance="10"
     inkscape:pageopacity="0"
     inkscape:pageshadow="2"
     inkscape:window-width="1920"
     inkscape:window-height="1027"
     id="namedview4"
     showgrid="false"
     inkscape:zoom="0.36166735"
     inkscape:cx="250.53334"
     inkscape:cy="326.26666"
     inkscape:window-x="-8"
     inkscape:window-y="-8"
     inkscape:window-maximized="1"
     inkscape:current-layer="g10" /><g
     id="g10"
     inkscape:groupmode="layer"
     inkscape:label="Vector Smart Object21"
     transform="matrix(1.3333333,0,0,-1.3333333,0,652.53333)"><g
       id="g12"><g
         id="g14"
         clip-path="url(#clipPath18)"><g
           id="g20"
           transform="translate(106.4998,342.4)"><path
             d="m 0,0 c 0,45.6 37.1,82.6 82.6,82.6 45.6,0 82.6,-37.1 82.6,-82.6 V -51.1 H 0 Z m 104.4,-206.2 c -3,-2.2 -3.799,-4.3 -3.799,-7.8 0.099,-15.7 0.099,-31.3 0.099,-47 0.3,-6.5 -3,-12.9 -8.8,-15.8 -13.7,-7 -27.4,2.8 -27.4,15.8 v 0.1 c 0,15.7 0,31.4 0.1,47.1 0,3.2 -0.7,5.3 -3.5,7.4 -14.2,10.5 -18.9,28.4 -11.8,44.1 6.9,15.3 23.8,24.3 39.7,21.1 17.7,-3.6 30,-17.8 30.2,-35.5 0,-12.3 -4.9,-22.3 -14.8,-29.5 M -64.3,0 v -51.1 h -3.4 c -21.4,0 -38.8,-17.4 -38.8,-38.8 v -213.7 c 0,-21.4 17.4,-38.8 38.8,-38.8 h 298.2 c 21.4,0 38.8,17.4 38.8,38.8 v 213.8 c 0,21.4 -17.4,38.8 -38.8,38.8 h -1 V 0.1 C 229.5,81.1 163.601,147 82.6,147 1.6,146.9 -64.3,81 -64.3,0"
             style="fill:#f9f9f9;fill-opacity:.6;fill-rule:nonzero;stroke:none"
             id="path22"
             inkscape:connector-curvature="0" /></g></g></g></g></svg>