<?xml version="1.0" encoding="UTF-8" standalone="no"?>
<!-- Created with Inkscape (http://www.inkscape.org/) -->

<svg
   xmlns:dc="http://purl.org/dc/elements/1.1/"
   xmlns:cc="http://creativecommons.org/ns#"
   xmlns:rdf="http://www.w3.org/1999/02/22-rdf-syntax-ns#"
   xmlns:svg="http://www.w3.org/2000/svg"
   xmlns="http://www.w3.org/2000/svg"
   xmlns:sodipodi="http://sodipodi.sourceforge.net/DTD/sodipodi-0.dtd"
   xmlns:inkscape="http://www.inkscape.org/namespaces/inkscape"
   version="1.1"
   id="svg2"
   xml:space="preserve"
   width="279.71066"
   height="286.20132"
   viewBox="0 0 279.71066 286.20132"
   sodipodi:docname="education-icon.svg"
   inkscape:version="0.92.4 (5da689c313, 2019-01-14)"><metadata
     id="metadata8"><rdf:RDF><cc:Work
         rdf:about=""><dc:format>image/svg+xml</dc:format><dc:type
           rdf:resource="http://purl.org/dc/dcmitype/StillImage" /><dc:title></dc:title></cc:Work></rdf:RDF></metadata><defs
     id="defs6"><clipPath
       clipPathUnits="userSpaceOnUse"
       id="clipPath18"><path
         d="M 0,214.651 H 209.783 V 0 H 0 Z"
         id="path16"
         inkscape:connector-curvature="0" /></clipPath></defs><sodipodi:namedview
     pagecolor="#ffffff"
     bordercolor="#666666"
     borderopacity="1"
     objecttolerance="10"
     gridtolerance="10"
     guidetolerance="10"
     inkscape:pageopacity="0"
     inkscape:pageshadow="2"
     inkscape:window-width="640"
     inkscape:window-height="480"
     id="namedview4"
     showgrid="false"
     inkscape:zoom="0.82459437"
     inkscape:cx="139.85533"
     inkscape:cy="143.10066"
     inkscape:window-x="0"
     inkscape:window-y="0"
     inkscape:window-maximized="0"
     inkscape:current-layer="g10" /><g
     id="g10"
     inkscape:groupmode="layer"
     inkscape:label="Vector Smart Object1"
     transform="matrix(1.3333333,0,0,-1.3333333,0,286.20133)"><g
       id="g12"><g
         id="g14"
         clip-path="url(#clipPath18)"><g
           id="g20"
           transform="translate(65.7119,145.3678)"><path
             d="m 0,0 h -10.777 v 46.732 h -9.782 c -2.053,-1.209 -4.166,-2.234 -6.339,-3.079 -2.174,-0.846 -4.831,-1.571 -7.97,-2.174 V 33.238 H -24.09 V 0 H -36.588 V -10.777 H 0 Z M 60.301,3.808 C 54.28,3.795 48.079,3.779 41.617,3.757 21.026,3.688 8.22,-9.175 8.196,-29.812 8.18,-43.429 8.17,-56.562 8.168,-69.345 c -13.259,-0.013 -26.52,0.022 -39.779,0.103 -14.879,0.091 -23.17,8.581 -23.191,23.434 -0.041,29.661 -0.037,59.323 -0.002,88.984 0.017,15.207 8.277,23.53 23.453,23.581 22.83,0.076 45.659,0.106 68.488,0.046 14.761,-0.038 23.108,-8.529 23.152,-23.394 0.04,-13.2 0.017,-26.401 0.012,-39.601 M 96.302,-86.547 H 84.71 c -1.329,0 -2.898,-0.077 -4.71,-0.227 -1.811,-0.151 -3.441,-0.317 -4.89,-0.498 4.648,4.891 8.876,9.872 12.68,14.943 3.803,5.073 5.705,10.022 5.705,14.854 0,5.493 -1.751,9.917 -5.252,13.267 -3.503,3.352 -8.092,5.027 -13.767,5.027 -4.106,0 -7.639,-0.77 -10.597,-2.309 -2.959,-1.54 -5.856,-3.82 -8.694,-6.839 l 7.245,-7.154 c 1.449,1.509 2.989,2.867 4.619,4.075 1.631,1.207 3.501,1.812 5.616,1.812 2.475,0 4.452,-0.756 5.932,-2.265 1.479,-1.51 2.219,-3.653 2.219,-6.43 0,-4.106 -2.341,-8.709 -7.02,-13.811 -4.679,-5.103 -10.671,-11.126 -17.977,-18.068 v -7.608 h 40.483 z m 36.981,-32.528 c -0.072,-14.586 -8.284,-23.044 -22.907,-23.155 -22.995,-0.176 -45.992,-0.151 -68.987,-0.012 -14.879,0.091 -23.17,8.581 -23.191,23.434 -0.041,29.661 -0.037,59.323 -0.002,88.984 0.017,15.207 8.277,23.53 23.454,23.581 22.828,0.076 45.658,0.106 68.487,0.046 14.761,-0.038 23.108,-8.529 23.152,-23.394 0.044,-14.83 0.009,-29.661 0.009,-44.492 0,-14.997 0.057,-29.995 -0.015,-44.992 m -145.842,38.358 h -44.127 c -4.838,0 -8.766,-3.911 -8.781,-8.75 -0.042,-13.937 -0.163,-32.297 -0.245,-43.62 -0.04,-5.677 4.605,-10.271 10.281,-10.162 0.542,0.011 1.09,0.021 1.639,0.032 5.291,0.095 9.531,4.408 9.531,9.7 v 15.113 c 0,0.279 0.327,0.425 0.533,0.238 3.039,-2.762 18.279,-16.667 25.382,-24.001 4.019,-4.149 10.632,-4.282 14.816,-0.297 4.788,4.56 4.803,12.193 0.031,16.771 -8.201,7.868 -16.54,15.867 -25.298,24.27 -0.073,0.069 -0.025,0.193 0.076,0.193 l 16.229,0.001 c 5.274,0 9.55,4.274 9.55,9.549 v 1.347 c 0,5.31 -4.306,9.616 -9.617,9.616 m 93.86,94.966 v 1.346 c 0,5.274 4.276,9.55 9.549,9.55 h 16.23 c 0.1,0 0.148,0.124 0.076,0.193 -8.759,8.402 -17.097,16.402 -25.299,24.27 -4.772,4.578 -4.756,12.21 0.032,16.771 4.184,3.985 10.796,3.852 14.816,-0.298 7.102,-7.333 22.343,-21.238 25.381,-24.001 0.206,-0.186 0.534,-0.039 0.534,0.238 v 15.114 c 0,5.292 4.24,9.605 9.531,9.7 0.549,0.011 1.097,0.021 1.639,0.031 5.675,0.11 10.321,-4.483 10.281,-10.161 -0.082,-11.323 -0.203,-29.683 -0.245,-43.62 -0.015,-4.839 -3.943,-8.75 -8.782,-8.75 H 90.917 c -5.31,0 -9.616,4.306 -9.616,9.617"
             style="fill:#f9f9f9;fill-opacity:1;fill-rule:nonzero;stroke:none"
             id="path22"
             inkscape:connector-curvature="0" /></g></g></g></g></svg>