<?xml version="1.0" encoding="UTF-8" standalone="no"?>
<!-- Created with Inkscape (http://www.inkscape.org/) -->

<svg
   xmlns:dc="http://purl.org/dc/elements/1.1/"
   xmlns:cc="http://creativecommons.org/ns#"
   xmlns:rdf="http://www.w3.org/1999/02/22-rdf-syntax-ns#"
   xmlns:svg="http://www.w3.org/2000/svg"
   xmlns="http://www.w3.org/2000/svg"
   xmlns:sodipodi="http://sodipodi.sourceforge.net/DTD/sodipodi-0.dtd"
   xmlns:inkscape="http://www.inkscape.org/namespaces/inkscape"
   version="1.1"
   id="svg2"
   xml:space="preserve"
   width="646.948"
   height="485.21066"
   viewBox="0 0 646.948 485.21066"
   sodipodi:docname="email-icon.svg"
   inkscape:version="0.92.4 (5da689c313, 2019-01-14)"><metadata
     id="metadata8"><rdf:RDF><cc:Work
         rdf:about=""><dc:format>image/svg+xml</dc:format><dc:type
           rdf:resource="http://purl.org/dc/dcmitype/StillImage" /><dc:title></dc:title></cc:Work></rdf:RDF></metadata><defs
     id="defs6"><clipPath
       clipPathUnits="userSpaceOnUse"
       id="clipPath18"><path
         d="M 0,363.908 H 485.211 V 0 H 0 Z"
         id="path16"
         inkscape:connector-curvature="0" /></clipPath></defs><sodipodi:namedview
     pagecolor="#ffffff"
     bordercolor="#666666"
     borderopacity="1"
     objecttolerance="10"
     gridtolerance="10"
     guidetolerance="10"
     inkscape:pageopacity="0"
     inkscape:pageshadow="2"
     inkscape:window-width="640"
     inkscape:window-height="480"
     id="namedview4"
     showgrid="false"
     inkscape:zoom="0.48638667"
     inkscape:cx="323.474"
     inkscape:cy="242.60533"
     inkscape:window-x="0"
     inkscape:window-y="0"
     inkscape:window-maximized="0"
     inkscape:current-layer="g10" /><g
     id="g10"
     inkscape:groupmode="layer"
     inkscape:label="Vector Smart Object2"
     transform="matrix(1.3333333,0,0,-1.3333333,0,485.21067)"><g
       id="g12"><g
         id="g14"
         clip-path="url(#clipPath18)"><g
           id="g20"
           transform="translate(9.4482,335.4741)"><path
             d="m 0,0 c -5.894,-9.355 -9.448,-20.344 -9.448,-32.22 v -242.602 c 0,-10.637 2.978,-20.498 7.789,-29.174 l 153.183,171.44 z m 291.944,-152.546 -48.808,-42.734 c -2.855,-2.487 -6.41,-3.729 -9.978,-3.729 -3.57,0 -7.125,1.242 -9.98,3.729 l -48.82,42.736 -155.139,-173.602 c 9.299,-5.833 20.197,-9.328 31.983,-9.328 h 363.91 c 11.784,0 22.688,3.495 31.984,9.328 z m -58.786,-11.162 210.863,184.5 c -8.653,4.737 -18.397,7.642 -28.909,7.642 H 51.203 c -10.524,0 -20.271,-2.905 -28.889,-7.642 z m 242.605,-111.113 c 0,-10.637 -2.992,-20.498 -7.785,-29.174 l -153.202,171.41 151.54,132.584 c 5.896,-9.355 9.447,-20.344 9.447,-32.219 z"
             style="fill:#f9f9f9;fill-opacity:.7;fill-rule:nonzero;stroke:none"
             id="path22"
             inkscape:connector-curvature="0" /></g></g></g></g></svg>