<?xml version="1.0" encoding="UTF-8" standalone="no"?>
<!-- Created with Inkscape (http://www.inkscape.org/) -->

<svg
   xmlns:dc="http://purl.org/dc/elements/1.1/"
   xmlns:cc="http://creativecommons.org/ns#"
   xmlns:rdf="http://www.w3.org/1999/02/22-rdf-syntax-ns#"
   xmlns:svg="http://www.w3.org/2000/svg"
   xmlns="http://www.w3.org/2000/svg"
   xmlns:sodipodi="http://sodipodi.sourceforge.net/DTD/sodipodi-0.dtd"
   xmlns:inkscape="http://www.inkscape.org/namespaces/inkscape"
   version="1.1"
   id="svg2"
   xml:space="preserve"
   width="498"
   height="478.04666"
   viewBox="0 0 498 478.04666"
   sodipodi:docname="loophole-icon.svg"
   inkscape:version="0.92.4 (5da689c313, 2019-01-14)"><metadata
     id="metadata8"><rdf:RDF><cc:Work
         rdf:about=""><dc:format>image/svg+xml</dc:format><dc:type
           rdf:resource="http://purl.org/dc/dcmitype/StillImage" /><dc:title></dc:title></cc:Work></rdf:RDF></metadata><defs
     id="defs6"><clipPath
       clipPathUnits="userSpaceOnUse"
       id="clipPath18"><path
         d="M 0,358.535 H 373.5 V 0 H 0 Z"
         id="path16"
         inkscape:connector-curvature="0" /></clipPath></defs><sodipodi:namedview
     pagecolor="#ffffff"
     bordercolor="#666666"
     borderopacity="1"
     objecttolerance="10"
     gridtolerance="10"
     guidetolerance="10"
     inkscape:pageopacity="0"
     inkscape:pageshadow="2"
     inkscape:window-width="640"
     inkscape:window-height="480"
     id="namedview4"
     showgrid="false"
     inkscape:zoom="0.49367566"
     inkscape:cx="249"
     inkscape:cy="239.02333"
     inkscape:window-x="0"
     inkscape:window-y="0"
     inkscape:window-maximized="0"
     inkscape:current-layer="g10" /><g
     id="g10"
     inkscape:groupmode="layer"
     inkscape:label="Vector Smart Object11"
     transform="matrix(1.3333333,0,0,-1.3333333,0,478.04667)"><g
       id="g12"><g
         id="g14"
         clip-path="url(#clipPath18)"><g
           id="g20"
           transform="translate(271.2852,134.3428)"><path
             d="m 0,0 v 6.962 c 0,5.789 -4.697,10.486 -10.485,10.486 h -5.202 -1.761 c -2.432,0 -4.656,-0.881 -6.459,-2.264 -2.475,-1.888 -4.027,-4.867 -4.027,-8.222 V 0 c 0,-5.788 4.698,-10.486 10.486,-10.486 h 6.963 C -4.697,-10.486 0,-5.788 0,0 m 102.215,27.514 v -46.682 c 0,-6.124 -2.643,-11.66 -6.837,-15.477 -2.097,-1.929 -4.571,-3.439 -7.34,-4.362 -2.139,-0.713 -4.404,-1.133 -6.795,-1.133 H 80.698 -43.788 c -11.576,0 -20.971,9.396 -20.971,20.972 v 23.236 6.501 6.501 10.444 c 0,11.577 9.395,20.971 20.971,20.971 h 94.12 23.445 6.501 0.42 0.545 c 2.391,0 4.655,-0.419 6.795,-1.132 2.769,-0.964 5.243,-2.433 7.34,-4.362 4.194,-3.816 6.837,-9.353 6.837,-15.477 M 59.727,141.263 H 54.945 48.444 41.943 -7.675 -190 h -23.908 -20.132 -3.733 -12.499 c -6.627,0 -12.54,-3.062 -16.399,-7.885 -1.762,-2.223 -3.104,-4.782 -3.859,-7.592 -0.462,-1.762 -0.755,-3.607 -0.755,-5.494 v -2.517 -23.907 -207.239 c 0,-11.577 9.395,-20.972 20.971,-20.972 H 59.685 c 11.577,0 20.971,9.395 20.971,20.972 v 58.51 H -43.788 c -19.671,0 -35.651,15.98 -35.651,35.651 V 0 6.501 13.002 27.431 c 0,9.646 3.858,18.412 10.108,24.829 5.536,5.705 12.961,9.563 21.265,10.528 1.384,0.168 2.81,0.252 4.236,0.252 h 107.038 6.501 6.501 4.446 v 57.252 c 0.042,11.576 -9.353,20.971 -20.929,20.971 m -48.612,54.148 c -1.844,0 -3.691,-0.252 -5.536,-0.755 l -34.98,-9.563 -106.828,-29.15 h 121.255 52.849 l -6.543,23.991 c -2.517,9.354 -10.989,15.477 -20.217,15.477 m -215.502,-39.468 133.294,66.059 c 10.361,5.16 22.944,0.881 28.102,-9.479 l 7.886,-15.938 -148.897,-40.642 z"
             style="fill:#f9f9f9;fill-opacity:1;fill-rule:nonzero;stroke:none"
             id="path22"
             inkscape:connector-curvature="0" /></g></g></g></g></svg>