<?xml version="1.0" encoding="UTF-8" standalone="no"?>
<!-- Created with Inkscape (http://www.inkscape.org/) -->

<svg
   xmlns:dc="http://purl.org/dc/elements/1.1/"
   xmlns:cc="http://creativecommons.org/ns#"
   xmlns:rdf="http://www.w3.org/1999/02/22-rdf-syntax-ns#"
   xmlns:svg="http://www.w3.org/2000/svg"
   xmlns="http://www.w3.org/2000/svg"
   xmlns:sodipodi="http://sodipodi.sourceforge.net/DTD/sodipodi-0.dtd"
   xmlns:inkscape="http://www.inkscape.org/namespaces/inkscape"
   version="1.1"
   id="svg2"
   xml:space="preserve"
   width="166.96133"
   height="196.00267"
   viewBox="0 0 166.96133 196.00267"
   sodipodi:docname="profit-icon.svg"
   inkscape:version="0.92.4 (5da689c313, 2019-01-14)"><metadata
     id="metadata8"><rdf:RDF><cc:Work
         rdf:about=""><dc:format>image/svg+xml</dc:format><dc:type
           rdf:resource="http://purl.org/dc/dcmitype/StillImage" /><dc:title></dc:title></cc:Work></rdf:RDF></metadata><defs
     id="defs6"><clipPath
       clipPathUnits="userSpaceOnUse"
       id="clipPath18"><path
         d="M 0,147.002 H 125.221 V 0 H 0 Z"
         id="path16"
         inkscape:connector-curvature="0" /></clipPath></defs><sodipodi:namedview
     pagecolor="#ffffff"
     bordercolor="#666666"
     borderopacity="1"
     objecttolerance="10"
     gridtolerance="10"
     guidetolerance="10"
     inkscape:pageopacity="0"
     inkscape:pageshadow="2"
     inkscape:window-width="640"
     inkscape:window-height="480"
     id="namedview4"
     showgrid="false"
     inkscape:zoom="1.2040652"
     inkscape:cx="83.480667"
     inkscape:cy="98.001335"
     inkscape:window-x="0"
     inkscape:window-y="0"
     inkscape:window-maximized="0"
     inkscape:current-layer="g10" /><g
     id="g10"
     inkscape:groupmode="layer"
     inkscape:label="Vector Smart Object2"
     transform="matrix(1.3333333,0,0,-1.3333333,0,196.00267)"><g
       id="g12"><g
         id="g14"
         clip-path="url(#clipPath18)"><g
           id="g20"
           transform="translate(71.9203,102.6861)"><path
             d="m 0,0 -16.592,3.469 c -1.269,0.262 -2.576,-0.229 -3.355,-1.264 -0.779,-1.038 -0.886,-2.43 -0.276,-3.578 l 3.679,-6.915 -53.567,-27.946 c -1.639,-0.848 -2.284,-2.866 -1.436,-4.498 0.594,-1.148 1.761,-1.808 2.971,-1.808 0.516,0 1.039,0.116 1.53,0.372 l 53.635,27.985 3.375,-6.343 c 0.581,-1.095 1.717,-1.773 2.949,-1.773 0.057,0 0.109,0.003 0.169,0.006 1.295,0.065 2.437,0.873 2.924,2.074 L 2.415,-4.525 C 2.79,-3.606 2.74,-2.571 2.271,-1.695 1.799,-0.829 0.97,-0.206 0,0 M 40.067,-9.137 H 20.026 c -3.694,0 -6.683,-2.993 -6.683,-6.681 v -80.178 c 0,-3.697 2.993,-6.684 6.683,-6.684 h 20.041 c 3.694,0 6.684,2.987 6.684,6.684 v 80.175 c 0.003,3.691 -2.99,6.684 -6.684,6.684 M -1.747,-35.865 h -20.045 c -3.69,0 -6.68,-2.993 -6.68,-6.684 v -53.454 c 0,-3.696 2.993,-6.684 6.68,-6.684 h 20.045 c 3.69,0 6.684,2.988 6.684,6.684 v 53.463 c 0,3.682 -2.991,6.675 -6.684,6.675 m -41.805,-23.382 h -20.045 c -3.69,0 -6.68,-2.993 -6.68,-6.684 v -30.065 c 0.003,-3.697 2.996,-6.684 6.68,-6.684 h 20.045 c 3.691,0 6.68,2.987 6.68,6.684 v 30.065 c 0.004,3.691 -2.986,6.684 -6.68,6.684 m 72.532,78.52 v -8.037 c -6.386,0.272 -3.04,5.576 -7.346,5.576 -1.454,0 -2.38,-0.888 -2.38,-2.421 0,-3.039 3.227,-6.921 9.724,-7.08 V 4.934 c 0,-0.657 0.497,-1.311 1.147,-1.311 0.656,0 1.157,0.654 1.157,1.311 v 2.377 c 5.727,0.347 9.571,2.964 9.571,8.112 0,5.921 -4.492,7.422 -9.571,8.498 v 7.306 c 4.26,-0.078 4.219,-4.191 6.725,-4.191 1.304,0 2.424,0.882 2.424,2.38 0,3.775 -6.159,5.655 -9.152,5.733 v 2.045 c 0,0.66 -0.501,1.311 -1.157,1.311 -0.65,0 -1.148,-0.651 -1.148,-1.311 v -2.045 c -4.804,-0.15 -9.148,-2.849 -9.148,-8.072 0,-4.269 3.452,-6.765 9.154,-7.804 M 6.793,21.065 c 0,12.82 10.431,23.251 23.257,23.251 12.82,0 23.25,-10.434 23.25,-23.251 C 53.3,8.249 42.873,-2.182 30.05,-2.182 17.224,-2.182 6.793,8.249 6.793,21.065 m 22.178,10.162 c -2.615,-0.075 -4.31,-1.617 -4.31,-3.268 0,-1.924 1.433,-3.037 4.313,-3.613 z m 2.308,-19.991 v 7.612 c 2.071,-0.463 4.729,-1.226 4.729,-3.844 0,-2.53 -2.421,-3.612 -4.729,-3.768"
             style="fill:#f9f9f9;fill-opacity:1;fill-rule:nonzero;stroke:none"
             id="path22"
             inkscape:connector-curvature="0" /></g></g></g></g></svg>