<?xml version="1.0" encoding="UTF-8" standalone="no"?>
<!-- Created with Inkscape (http://www.inkscape.org/) -->

<svg
   xmlns:dc="http://purl.org/dc/elements/1.1/"
   xmlns:cc="http://creativecommons.org/ns#"
   xmlns:rdf="http://www.w3.org/1999/02/22-rdf-syntax-ns#"
   xmlns:svg="http://www.w3.org/2000/svg"
   xmlns="http://www.w3.org/2000/svg"
   xmlns:sodipodi="http://sodipodi.sourceforge.net/DTD/sodipodi-0.dtd"
   xmlns:inkscape="http://www.inkscape.org/namespaces/inkscape"
   version="1.1"
   id="svg2"
   xml:space="preserve"
   width="354.94666"
   height="466.66666"
   viewBox="0 0 354.94666 466.66666"
   sodipodi:docname="user-icon.svg"
   inkscape:version="0.92.4 (5da689c313, 2019-01-14)"><metadata
     id="metadata8"><rdf:RDF><cc:Work
         rdf:about=""><dc:format>image/svg+xml</dc:format><dc:type
           rdf:resource="http://purl.org/dc/dcmitype/StillImage" /><dc:title></dc:title></cc:Work></rdf:RDF></metadata><defs
     id="defs6"><clipPath
       clipPathUnits="userSpaceOnUse"
       id="clipPath18"><path
         d="M 0,350 H 266.21 V 0 H 0 Z"
         id="path16"
         inkscape:connector-curvature="0" /></clipPath></defs><sodipodi:namedview
     pagecolor="#ffffff"
     bordercolor="#666666"
     borderopacity="1"
     objecttolerance="10"
     gridtolerance="10"
     guidetolerance="10"
     inkscape:pageopacity="0"
     inkscape:pageshadow="2"
     inkscape:window-width="1920"
     inkscape:window-height="1027"
     id="namedview4"
     showgrid="false"
     inkscape:zoom="0.5057143"
     inkscape:cx="177.47333"
     inkscape:cy="233.33333"
     inkscape:window-x="-8"
     inkscape:window-y="-8"
     inkscape:window-maximized="1"
     inkscape:current-layer="g10" /><g
     id="g10"
     inkscape:groupmode="layer"
     inkscape:label="Vector Smart Object1"
     transform="matrix(1.3333333,0,0,-1.3333333,0,466.66667)"><g
       id="g12"><g
         id="g14"
         clip-path="url(#clipPath18)"><g
           id="g20"
           transform="translate(266.0394,51.6026)"><path
             d="m 0,0 c -1.305,82.343 -12.059,105.806 -94.352,120.657 0,0 -11.584,-14.761 -38.584,-14.761 -27,0 -38.585,14.761 -38.585,14.761 -81.396,-14.689 -92.804,-37.804 -94.304,-117.981 -0.123,-6.547 -0.179,-6.892 -0.201,-6.132 0.005,-1.424 0.01,-4.058 0.01,-8.65 0,0 19.593,-39.497 133.08,-39.497 113.487,0 133.081,39.497 133.081,39.497 0,2.951 0.001,5.002 0.004,6.398 C 0.128,-6.178 0.083,-5.267 0,0 m 0.15,-5.706 c 0.038,0.788 0.013,5.474 0,0 m -266.175,2.251 c -0.013,2.882 -0.025,0.811 0,0 m 62.626,216.266 c 0,47.269 10.359,85.586 70.464,85.586 60.106,0 70.463,-38.317 70.463,-85.586 0,-47.269 -31.549,-85.586 -70.463,-85.586 -38.916,0 -70.464,38.317 -70.464,85.586"
             style="fill:#f9f9f9;fill-opacity:.7;fill-rule:nonzero;stroke:none"
             id="path22"
             inkscape:connector-curvature="0" /></g></g></g></g></svg>